# Blender v2.69 (sub 0) OBJ File: 'finRoomUnjoined.blend'
# www.blender.org
o room_2_559
v -7.796724 1.101812 -0.466287
v -7.796724 1.101810 7.832458
v -4.821768 1.101810 7.832458
v -4.816720 1.101812 -0.466286
v -7.796724 1.101810 7.832458
v -7.796724 1.101810 8.037867
v 12.064921 1.101810 8.037867
v -4.821768 1.101810 7.832458
v -4.360383 1.101812 -0.629509
v -4.816720 1.101812 -0.466286
v 3.799809 1.101812 -0.530363
v 3.799809 1.101812 -0.629508
v 3.780854 1.101812 -0.380292
v 3.780854 1.101812 -0.200689
v -4.382099 1.101812 -0.200690
v -4.382099 1.101810 7.630766
v 11.657811 1.101810 7.630766
v 12.064921 1.101813 -7.122702
v 11.756955 1.101811 2.106410
v 11.657811 1.101811 2.106410
v 11.756955 1.101812 0.604119
v 11.657811 1.101812 0.604119
v 11.657811 1.101812 -0.200689
v 6.161906 1.101812 -0.200690
v 5.277627 1.101812 -0.200689
v 6.161906 1.101812 -0.200689
v 5.277627 1.101812 -0.380292
v 5.302097 1.101812 -0.530363
v 5.302097 1.101812 -0.629508
v 5.980069 1.101812 -0.629508
v 5.980069 1.101813 -6.737310
v -7.796724 1.101813 -7.122703
v -4.360383 1.101813 -6.737311
v -7.796724 1.101812 -0.466287
v 5.980070 1.101812 -0.629510
v 5.980070 1.101813 -6.737312
v -4.360382 1.101813 -6.737312
v 5.302098 1.101812 -0.629510
v 5.302098 1.101812 -0.530364
v 3.799810 1.101812 -0.629510
v 3.799810 1.101812 -0.530364
v -4.360382 1.101812 -0.629510
vt 0.137582 0.589997
vt 0.350742 0.589997
vt 0.350742 0.950875
vt 0.137582 0.613658
vt 0.134122 0.613658
vt 0.137582 0.666087
vt 0.134122 0.666087
vt 0.137582 0.950875
vt 0.931286 0.060899
vt 0.931286 0.350522
vt 0.827461 0.350522
vt 0.827285 0.060899
vt 0.827285 0.582828
vt 0.827285 0.589997
vt 0.134122 0.589997
vt 0.723460 0.582828
vt 0.707358 0.287509
vt 0.723284 0.293205
vt 0.422571 0.290969
vt 0.422571 0.287509
vt 0.423232 0.296207
vt 0.423232 0.302475
vt 0.708116 0.302475
vt 0.708116 0.575789
vt 0.148330 0.575789
vt 0.134122 0.060899
vt 0.144870 0.382991
vt 0.148330 0.382991
vt 0.144870 0.330562
vt 0.148330 0.330562
vt 0.148330 0.302475
vt 0.340135 0.302475
vt 0.370996 0.302475
vt 0.370996 0.296207
vt 0.370142 0.290969
vt 0.370142 0.287509
vt 0.346481 0.287509
vt 0.346481 0.074349
vt 0.707358 0.074349
vt 0.827285 0.293205
vn 0.000000 1.000000 0.000000
vn 0.000000 1.000000 0.000012
vn -0.000000 1.000000 0.000001
vn 0.000028 1.000000 0.000000
vn -0.000000 1.000000 -0.000001
vn 1.000000 0.000000 0.000000
s off
f 35/1/1 36/2/1 37/3/1
f 38/4/1 35/1/1 37/3/1
f 39/5/1 38/4/1 37/3/1
f 40/6/1 41/7/1 39/5/1
f 40/6/1 39/5/1 37/3/1
f 40/6/1 37/3/1 42/8/1
f 1/9/1 2/10/1 3/11/1
f 1/9/1 3/11/1 4/12/1
f 5/13/1 6/14/1 7/15/1
f 8/16/2 5/13/2 7/15/2
f 9/17/1 10/18/1 8/16/1
f 11/19/1 12/20/1 9/17/1
f 13/21/1 11/19/1 9/17/1
f 14/22/1 13/21/1 9/17/1
f 15/23/3 14/22/3 9/17/3
f 15/23/4 9/17/4 8/16/4
f 16/24/1 15/23/1 8/16/1
f 16/24/5 8/16/5 7/15/5
f 17/25/1 16/24/1 7/15/1
f 17/25/1 7/15/1 18/26/1
f 19/27/1 20/28/1 17/25/1
f 19/27/1 17/25/1 18/26/1
f 21/29/1 19/27/1 18/26/1
f 22/30/1 21/29/1 18/26/1
f 23/31/1 22/30/1 18/26/1
f 24/32/1 23/31/1 18/26/1
f 25/33/1 26/32/1 24/32/1
f 27/34/1 25/33/1 24/32/1
f 11/19/1 13/21/1 27/34/1
f 28/35/1 11/19/1 27/34/1
f 28/35/5 27/34/5 24/32/5
f 29/36/1 28/35/1 24/32/1
f 30/37/1 29/36/1 24/32/1
f 30/37/1 24/32/1 18/26/1
f 31/38/1 30/37/1 18/26/1
f 31/38/1 18/26/1 32/12/1
f 33/39/1 31/38/1 32/12/1
f 9/17/1 33/39/1 32/12/1
f 10/18/1 9/17/1 32/12/1
f 34/40/1 10/18/1 32/12/1
f 32/12/6 5/13/6 34/40/6
