# Blender v2.69 (sub 0) OBJ File: 'finRoomUnjoined.blend'
# www.blender.org
o 371
v 8.813552 4.210654 7.610667
v 8.813552 4.210655 6.796458
v 9.627173 4.210655 6.796458
v 9.627173 4.210654 7.610667
v 8.813552 4.288491 7.610667
v 9.627173 4.288491 7.610667
v 9.627173 4.288491 6.796458
v 8.813552 4.288491 6.796458
v 8.681148 4.246406 7.610667
v 8.701869 4.171378 7.610667
v 8.701869 4.171378 6.796458
v 8.681148 4.246406 6.796458
v 9.734391 4.172908 7.610667
v 9.764045 4.244875 7.610667
v 9.764045 4.244875 6.796458
v 9.734391 4.172908 6.796458
v 9.220361 4.277873 7.203564
v 9.076005 4.277873 7.348024
v 9.023166 4.277873 7.256439
v 9.023166 4.277873 7.150687
v 9.076005 4.277873 7.059105
v 9.167523 4.277873 7.006227
v 9.273200 4.277873 7.006227
v 9.364717 4.277873 7.059105
v 9.417554 4.277873 7.150687
v 9.417554 4.277873 7.256439
v 9.364717 4.277873 7.348024
v 9.273200 4.277873 7.400900
v 9.167523 4.277873 7.400900
v 9.167523 5.172855 7.400900
v 9.076005 5.172855 7.348024
v 9.273200 5.172855 7.400900
v 9.364717 5.172855 7.348024
v 9.417554 5.172855 7.256439
v 9.417554 5.172855 7.150687
v 9.364717 5.172855 7.059105
v 9.273200 5.172855 7.006227
v 9.167523 5.172855 7.006227
v 9.076005 5.172855 7.059105
v 9.023166 5.172855 7.150687
v 9.023166 5.172855 7.256439
v 9.220361 5.172855 7.203564
vt 0.406147 0.357158
vt 0.406147 0.000001
vt 0.763046 0.000000
vt 0.763046 0.357157
vt 0.000000 0.416941
vt 0.000000 0.060040
vt 0.357157 0.060040
vt 0.357156 0.416941
vt 0.898064 0.774120
vt 0.863921 0.774069
vt 0.864450 0.417169
vt 0.898593 0.417220
vt 0.915221 0.415265
vt 0.949364 0.415214
vt 0.949893 0.772114
vt 0.915750 0.772165
vt 0.933596 0.357158
vt 0.966520 0.366199
vt 0.915221 0.823135
vt 0.882296 0.832176
vt 0.357157 0.475019
vt 0.000000 0.475019
vt 0.357157 0.357158
vt 0.357158 0.000001
vt 1.000000 0.714316
vt 0.966520 0.714315
vt 0.966520 0.357158
vt 1.000000 0.357159
vt 0.966520 0.819121
vt 0.934971 0.832176
vt 0.883671 0.357158
vt 0.915221 0.370213
vt 0.000000 0.000000
vt 0.357156 0.000000
vt 0.810079 0.000000
vt 0.810079 0.357157
vt 0.357157 0.648021
vt 0.357157 0.680767
vt 0.000000 0.680768
vt 0.000000 0.648021
vt 0.270595 0.561520
vt 0.207227 0.498198
vt 0.247400 0.475019
vt 0.293789 0.475019
vt 0.333963 0.498198
vt 0.357157 0.538343
vt 0.357157 0.584698
vt 0.333962 0.624843
vt 0.293789 0.648021
vt 0.247400 0.648021
vt 0.207226 0.624843
vt 0.184032 0.584698
vt 0.184032 0.538343
vt 0.737276 0.357158
vt 0.777421 0.357158
vt 0.777421 0.749747
vt 0.737276 0.749747
vt 0.823776 0.357158
vt 0.823776 0.749747
vt 0.863921 0.357158
vt 0.863921 0.749747
vt 0.610630 0.750035
vt 0.570456 0.747634
vt 0.570457 0.357158
vt 0.610630 0.359560
vt 0.524067 0.747634
vt 0.524068 0.357158
vt 0.483894 0.750035
vt 0.483894 0.359560
vt 0.610630 0.357158
vt 0.650775 0.357158
vt 0.650775 0.749747
vt 0.610630 0.749747
vt 0.697130 0.357158
vt 0.697130 0.749747
vt 0.483894 0.750397
vt 0.443720 0.748732
vt 0.443720 0.357158
vt 0.483894 0.358823
vt 0.397332 0.748732
vt 0.397331 0.357158
vt 0.357158 0.750397
vt 0.357157 0.358823
vt 0.074276 0.648020
vt 0.034102 0.624841
vt 0.097470 0.561519
vt 0.120664 0.648020
vt 0.160838 0.624842
vt 0.184032 0.584697
vt 0.184032 0.538341
vt 0.160837 0.498197
vt 0.120664 0.475019
vt 0.074275 0.475019
vt 0.034101 0.498197
vt 0.010907 0.538341
vt 0.010907 0.584697
vn 0.000000 -1.000000 -0.000001
vn 0.000000 -1.000000 0.000000
vn 0.000000 1.000000 0.000000
vn 0.000000 0.000000 -1.000000
vn 0.000000 0.000000 1.000000
vn -0.000013 0.000000 1.000000
vn -0.302921 0.953016 0.000000
vn 0.331763 -0.943363 0.000000
vn 0.331759 -0.943364 0.000000
vn -0.963914 -0.266215 0.000000
vn 0.000007 0.000000 1.000000
vn -0.000011 0.000000 1.000000
vn 0.303624 0.952792 0.000000
vn 0.303621 0.952793 0.000000
vn -0.332076 -0.943253 -0.000001
vn -0.332070 -0.943255 0.000000
vn 0.924587 -0.380971 0.000000
vn 0.924587 -0.380972 0.000000
vn 0.000000 -1.000000 -0.000003
vn 0.000000 -1.000000 0.000003
vn -0.500269 0.000000 0.865870
vn -0.500262 0.000000 0.865874
vn 0.500270 0.000000 0.865870
vn 0.500277 0.000000 0.865865
vn 0.866187 0.000000 0.499720
vn 1.000000 0.000000 0.000000
vn 0.866180 0.000000 -0.499733
vn 0.500293 0.000000 -0.865856
vn 0.500285 0.000000 -0.865861
vn -0.500277 0.000000 -0.865865
vn -0.500285 0.000000 -0.865861
vn -0.866172 0.000000 -0.499746
vn -1.000000 0.000000 0.000000
vn -0.866179 0.000000 0.499733
vn 0.000000 1.000000 0.000003
vn 0.000000 1.000000 0.000006
vn 0.000000 1.000000 -0.000003
s off
f 1/1/1 2/2/1 3/3/1
f 1/1/2 3/3/2 4/4/2
f 5/5/3 6/6/3 7/7/3
f 5/5/3 7/7/3 8/8/3
f 2/9/4 8/10/4 7/11/4
f 2/9/4 7/11/4 3/12/4
f 5/13/5 1/14/5 4/15/5
f 5/13/5 4/15/5 6/16/5
f 1/14/5 5/13/5 9/17/5
f 1/14/6 9/17/6 10/18/6
f 8/10/4 2/9/4 11/19/4
f 8/10/4 11/19/4 12/20/4
f 5/5/7 8/8/7 12/21/7
f 5/5/7 12/21/7 9/22/7
f 2/2/8 1/1/8 10/23/8
f 2/2/9 10/23/9 11/24/9
f 10/25/10 9/26/10 12/27/10
f 10/25/10 12/27/10 11/28/10
f 6/16/11 4/15/11 13/29/11
f 6/16/12 13/29/12 14/30/12
f 3/12/4 7/11/4 15/31/4
f 3/12/4 15/31/4 16/32/4
f 7/7/13 6/6/13 14/33/13
f 7/7/14 14/33/14 15/34/14
f 4/4/15 3/3/15 16/35/15
f 4/4/16 16/35/16 13/36/16
f 16/37/17 15/38/17 14/39/17
f 16/37/18 14/39/18 13/40/18
f 17/41/2 18/42/2 19/43/2
f 17/41/2 19/43/2 20/44/2
f 17/41/2 20/44/2 21/45/2
f 17/41/2 21/45/2 22/46/2
f 17/41/2 22/46/2 23/47/2
f 17/41/19 23/47/19 24/48/19
f 17/41/2 24/48/2 25/49/2
f 17/41/2 25/49/2 26/50/2
f 17/41/2 26/50/2 27/51/2
f 17/41/20 27/51/20 28/52/20
f 17/41/2 28/52/2 29/53/2
f 18/42/2 17/41/2 29/53/2
f 18/54/21 29/55/21 30/56/21
f 18/54/22 30/56/22 31/57/22
f 29/55/5 28/58/5 32/59/5
f 29/55/5 32/59/5 30/56/5
f 28/58/23 27/60/23 33/61/23
f 28/58/24 33/61/24 32/59/24
f 27/62/25 26/63/25 34/64/25
f 27/62/25 34/64/25 33/65/25
f 26/63/26 25/66/26 35/67/26
f 26/63/26 35/67/26 34/64/26
f 25/66/27 24/68/27 36/69/27
f 25/66/27 36/69/27 35/67/27
f 24/70/28 23/71/28 37/72/28
f 24/70/29 37/72/29 36/73/29
f 23/71/4 22/74/4 38/75/4
f 23/71/4 38/75/4 37/72/4
f 22/74/30 21/54/30 39/57/30
f 22/74/31 39/57/31 38/75/31
f 21/76/32 20/77/32 40/78/32
f 21/76/32 40/78/32 39/79/32
f 20/77/33 19/80/33 41/81/33
f 20/77/33 41/81/33 40/78/33
f 19/80/34 18/82/34 31/83/34
f 19/80/34 31/83/34 41/81/34
f 41/84/3 31/85/3 42/86/3
f 40/87/3 41/84/3 42/86/3
f 39/88/3 40/87/3 42/86/3
f 38/89/3 39/88/3 42/86/3
f 37/90/35 38/89/35 42/86/35
f 36/91/3 37/90/3 42/86/3
f 35/92/36 36/91/36 42/86/36
f 34/93/3 35/92/3 42/86/3
f 33/94/3 34/93/3 42/86/3
f 32/95/3 33/94/3 42/86/3
f 30/96/37 32/95/37 42/86/37
f 31/85/3 30/96/3 42/86/3
